<svg width="54" height="54" viewBox="0 0 54 54" fill="none" xmlns="http://www.w3.org/2000/svg">
<path d="M54 27C54 12.112 41.888 0 27 0C12.112 0 0 12.112 0 27C0 41.888 12.112 54 27 54C41.888 54 54 41.888 54 27ZM2 27C2 13.215 13.215 2 27 2C40.785 2 52 13.215 52 27C52 40.785 40.785 52 27 52C13.215 52 2 40.785 2 27Z" fill="#04D6FD"/>
<path d="M35.065 27.707C35.456 27.316 35.456 26.684 35.065 26.293L24.565 15.793C24.174 15.402 23.542 15.402 23.151 15.793C22.76 16.184 22.76 16.816 23.151 17.207L32.944 27L23.151 36.793C22.956 36.988 22.858 37.244 22.858 37.5C22.858 37.756 22.956 38.012 23.151 38.207C23.542 38.598 24.174 38.598 24.565 38.207L35.065 27.707Z" fill="#04D6FD"/>
</svg>
